<svg id="my-svg" width="100%" xmlns="http://www.w3.org/2000/svg" xmlns:xlink="http://www.w3.org/1999/xlink" class="classDiagram" style="max-width: 378.859px; background-color: transparent;" viewBox="0 0 378.859375 368" role="graphics-document document" aria-roledescription="class"><style>#my-svg{font-family:"trebuchet ms",verdana,arial,sans-serif;font-size:16px;fill:#ccc;}@keyframes edge-animation-frame{from{stroke-dashoffset:0;}}@keyframes dash{to{stroke-dashoffset:0;}}#my-svg .edge-animation-slow{stroke-dasharray:9,5!important;stroke-dashoffset:900;animation:dash 50s linear infinite;stroke-linecap:round;}#my-svg .edge-animation-fast{stroke-dasharray:9,5!important;stroke-dashoffset:900;animation:dash 20s linear infinite;stroke-linecap:round;}#my-svg .error-icon{fill:#a44141;}#my-svg .error-text{fill:#ddd;stroke:#ddd;}#my-svg .edge-thickness-normal{stroke-width:1px;}#my-svg .edge-thickness-thick{stroke-width:3.5px;}#my-svg .edge-pattern-solid{stroke-dasharray:0;}#my-svg .edge-thickness-invisible{stroke-width:0;fill:none;}#my-svg .edge-pattern-dashed{stroke-dasharray:3;}#my-svg .edge-pattern-dotted{stroke-dasharray:2;}#my-svg .marker{fill:#A78BFA;stroke:#A78BFA;}#my-svg .marker.cross{stroke:#A78BFA;}#my-svg svg{font-family:"trebuchet ms",verdana,arial,sans-serif;font-size:16px;}#my-svg p{margin:0;}#my-svg g.classGroup text{fill:#ccc;stroke:none;font-family:"trebuchet ms",verdana,arial,sans-serif;font-size:10px;}#my-svg g.classGroup text .title{font-weight:bolder;}#my-svg .cluster-label text{fill:#F9FFFE;}#my-svg .cluster-label span{color:#F9FFFE;}#my-svg .cluster-label span p{background-color:transparent;}#my-svg .cluster rect{fill:hsl(180, 1.5873015873%, 28.3529411765%);stroke:rgba(255, 255, 255, 0.25);stroke-width:1px;}#my-svg .cluster text{fill:#F9FFFE;}#my-svg .cluster span{color:#F9FFFE;}#my-svg .nodeLabel,#my-svg .edgeLabel{color:#e0dfdf;}#my-svg .noteLabel .nodeLabel,#my-svg .noteLabel .edgeLabel{color:rgb(183.8476190475, 181.5523809523, 181.5523809523);}#my-svg .edgeLabel .label rect{fill:#1f2020;}#my-svg .label text{fill:#e0dfdf;}#my-svg .labelBkg{background:#1f2020;}#my-svg .edgeLabel .label span{background:#1f2020;}#my-svg .classTitle{font-weight:bolder;}#my-svg .node rect,#my-svg .node circle,#my-svg .node ellipse,#my-svg .node polygon,#my-svg .node path{fill:#1f2020;stroke:#ccc;stroke-width:1;}#my-svg .divider{stroke:#ccc;stroke-width:1;}#my-svg g.clickable{cursor:pointer;}#my-svg g.classGroup rect{fill:#1f2020;stroke:#ccc;}#my-svg g.classGroup line{stroke:#ccc;stroke-width:1;}#my-svg .classLabel .box{stroke:none;stroke-width:0;fill:#1f2020;opacity:0.5;}#my-svg .classLabel .label{fill:#ccc;font-size:10px;}#my-svg .relation{stroke:#A78BFA;stroke-width:1;fill:none;}#my-svg .dashed-line{stroke-dasharray:3;}#my-svg .dotted-line{stroke-dasharray:1 2;}#my-svg [id$="-compositionStart"],#my-svg .composition{fill:#A78BFA!important;stroke:#A78BFA!important;stroke-width:1;}#my-svg [id$="-compositionEnd"],#my-svg .composition{fill:#A78BFA!important;stroke:#A78BFA!important;stroke-width:1;}#my-svg [id$="-dependencyStart"],#my-svg .dependency{fill:#A78BFA!important;stroke:#A78BFA!important;stroke-width:1;}#my-svg [id$="-dependencyEnd"],#my-svg .dependency{fill:#A78BFA!important;stroke:#A78BFA!important;stroke-width:1;}#my-svg [id$="-extensionStart"],#my-svg .extension{fill:transparent!important;stroke:#A78BFA!important;stroke-width:1;}#my-svg [id$="-extensionEnd"],#my-svg .extension{fill:transparent!important;stroke:#A78BFA!important;stroke-width:1;}#my-svg [id$="-aggregationStart"],#my-svg .aggregation{fill:transparent!important;stroke:#A78BFA!important;stroke-width:1;}#my-svg [id$="-aggregationEnd"],#my-svg .aggregation{fill:transparent!important;stroke:#A78BFA!important;stroke-width:1;}#my-svg [id$="-lollipopStart"],#my-svg .lollipop{fill:#1f2020!important;stroke:#A78BFA!important;stroke-width:1;}#my-svg [id$="-lollipopEnd"],#my-svg .lollipop{fill:#1f2020!important;stroke:#A78BFA!important;stroke-width:1;}#my-svg .edgeTerminals{font-size:11px;line-height:initial;}#my-svg .classTitleText{text-anchor:middle;font-size:18px;fill:#ccc;}#my-svg .edgeLabel[data-look="neo"]{background-color:hsl(0, 0%, 34.4117647059%);text-align:center;}#my-svg .edgeLabel[data-look="neo"] p{background-color:hsl(0, 0%, 34.4117647059%);}#my-svg .edgeLabel[data-look="neo"] rect{opacity:0.5;background-color:hsl(0, 0%, 34.4117647059%);fill:hsl(0, 0%, 34.4117647059%);}#my-svg .label-icon{display:inline-block;height:1em;overflow:visible;vertical-align:-0.125em;}#my-svg .node .label-icon path{fill:currentColor;stroke:revert;stroke-width:revert;}#my-svg .node .neo-node{stroke:#ccc;}#my-svg [data-look="neo"].node rect,#my-svg [data-look="neo"].cluster rect,#my-svg [data-look="neo"].node polygon{stroke:url(#my-svg-gradient);filter:drop-shadow( 1px 2px 2px rgba(185,185,185,1));}#my-svg [data-look="neo"].node path{stroke:url(#my-svg-gradient);stroke-width:1px;}#my-svg [data-look="neo"].node .outer-path{filter:drop-shadow( 1px 2px 2px rgba(185,185,185,1));}#my-svg [data-look="neo"].node .neo-line path{stroke:#ccc;filter:none;}#my-svg [data-look="neo"].node circle{stroke:url(#my-svg-gradient);filter:drop-shadow( 1px 2px 2px rgba(185,185,185,1));}#my-svg [data-look="neo"].node circle .state-start{fill:#000000;}#my-svg [data-look="neo"].icon-shape .icon{fill:url(#my-svg-gradient);filter:drop-shadow( 1px 2px 2px rgba(185,185,185,1));}#my-svg [data-look="neo"].icon-shape .icon-neo path{stroke:url(#my-svg-gradient);filter:drop-shadow( 1px 2px 2px rgba(185,185,185,1));}#my-svg :root{--mermaid-font-family:"trebuchet ms",verdana,arial,sans-serif;}</style><g><defs><marker id="my-svg_class-aggregationStart" class="marker aggregation class" refX="18" refY="7" markerWidth="190" markerHeight="240" orient="auto"><path d="M 18,7 L9,13 L1,7 L9,1 Z"/></marker></defs><defs><marker id="my-svg_class-aggregationEnd" class="marker aggregation class" refX="1" refY="7" markerWidth="20" markerHeight="28" orient="auto"><path d="M 18,7 L9,13 L1,7 L9,1 Z"/></marker></defs><defs><marker id="my-svg_class-aggregationStart-margin" class="marker aggregation class" refX="15" refY="7" markerWidth="190" markerHeight="240" orient="auto" markerUnits="userSpaceOnUse"><path d="M 18,7 L9,13 L1,7 L9,1 Z" style="stroke-width: 2;"/></marker></defs><defs><marker id="my-svg_class-aggregationEnd-margin" class="marker aggregation class" refX="1" refY="7" markerWidth="20" markerHeight="28" orient="auto" markerUnits="userSpaceOnUse"><path d="M 18,7 L9,13 L1,7 L9,1 Z" style="stroke-width: 2;"/></marker></defs><defs><marker id="my-svg_class-extensionStart" class="marker extension class" refX="18" refY="7" markerWidth="20" markerHeight="28" orient="auto" markerUnits="userSpaceOnUse"><path d="M 1,7 L18,13 V 1 Z"/></marker></defs><defs><marker id="my-svg_class-extensionEnd" class="marker extension class" refX="1" refY="7" markerWidth="20" markerHeight="28" orient="auto"><path d="M 1,1 V 13 L18,7 Z"/></marker></defs><marker id="my-svg_class-extensionStart-margin" class="marker extension class" refX="18" refY="7" markerWidth="20" markerHeight="28" orient="auto" markerUnits="userSpaceOnUse" viewBox="0 0 20 14"><polygon points="10,7 18,13 18,1" style="stroke-width: 2; stroke-dasharray: 0;"/></marker><defs><marker id="my-svg_class-extensionEnd-margin" class="marker extension class" refX="9" refY="7" markerWidth="20" markerHeight="28" orient="auto" markerUnits="userSpaceOnUse" viewBox="0 0 20 14"><polygon points="10,1 10,13 18,7" style="stroke-width: 2; stroke-dasharray: 0;"/></marker></defs><defs><marker id="my-svg_class-compositionStart" class="marker composition class" refX="18" refY="7" markerWidth="190" markerHeight="240" orient="auto"><path d="M 18,7 L9,13 L1,7 L9,1 Z"/></marker></defs><defs><marker id="my-svg_class-compositionEnd" class="marker composition class" refX="1" refY="7" markerWidth="20" markerHeight="28" orient="auto"><path d="M 18,7 L9,13 L1,7 L9,1 Z"/></marker></defs><defs><marker id="my-svg_class-compositionStart-margin" class="marker composition class" refX="15" refY="7" markerWidth="190" markerHeight="240" orient="auto" markerUnits="userSpaceOnUse"><path viewBox="0 0 15 15" d="M 18,7 L9,13 L1,7 L9,1 Z" style="stroke-width: 0;"/></marker></defs><defs><marker id="my-svg_class-compositionEnd-margin" class="marker composition class" refX="3.5" refY="7" markerWidth="20" markerHeight="28" orient="auto" markerUnits="userSpaceOnUse"><path d="M 18,7 L9,13 L1,7 L9,1 Z" style="stroke-width: 0;"/></marker></defs><defs><marker id="my-svg_class-dependencyStart" class="marker dependency class" refX="6" refY="7" markerWidth="190" markerHeight="240" orient="auto"><path d="M 5,7 L9,13 L1,7 L9,1 Z"/></marker></defs><defs><marker id="my-svg_class-dependencyEnd" class="marker dependency class" refX="13" refY="7" markerWidth="20" markerHeight="28" orient="auto"><path d="M 18,7 L9,13 L14,7 L9,1 Z"/></marker></defs><defs><marker id="my-svg_class-dependencyStart-margin" class="marker dependency class" refX="4" refY="7" markerWidth="190" markerHeight="240" orient="auto" markerUnits="userSpaceOnUse"><path d="M 5,7 L9,13 L1,7 L9,1 Z" style="stroke-width: 0;"/></marker></defs><defs><marker id="my-svg_class-dependencyEnd-margin" class="marker dependency class" refX="16" refY="7" markerWidth="20" markerHeight="28" orient="auto" markerUnits="userSpaceOnUse"><path d="M 18,7 L9,13 L14,7 L9,1 Z" style="stroke-width: 0;"/></marker></defs><defs><marker id="my-svg_class-lollipopStart" class="marker lollipop class" refX="13" refY="7" markerWidth="190" markerHeight="240" orient="auto"><circle fill="transparent" cx="7" cy="7" r="6"/></marker></defs><defs><marker id="my-svg_class-lollipopEnd" class="marker lollipop class" refX="1" refY="7" markerWidth="190" markerHeight="240" orient="auto"><circle fill="transparent" cx="7" cy="7" r="6"/></marker></defs><defs><marker id="my-svg_class-lollipopStart-margin" class="marker lollipop class" refX="13" refY="7" markerWidth="190" markerHeight="240" orient="auto" markerUnits="userSpaceOnUse"><circle fill="transparent" cx="7" cy="7" r="6" stroke-width="2"/></marker></defs><defs><marker id="my-svg_class-lollipopEnd-margin" class="marker lollipop class" refX="1" refY="7" markerWidth="190" markerHeight="240" orient="auto" markerUnits="userSpaceOnUse"><circle fill="transparent" cx="7" cy="7" r="6" stroke-width="2"/></marker></defs><g class="root"><g class="clusters"/><g class="edgePaths"><path d="M189.082,92L189.082,96.167C189.082,100.333,189.082,108.667,189.082,116C189.082,123.333,189.082,129.667,189.082,132.833L189.082,136" id="my-svg-id_FrontendAPI_BackendBoundaries_1" class="edge-thickness-normal edge-pattern-solid relation" style=";;;" data-edge="true" data-et="edge" data-id="id_FrontendAPI_BackendBoundaries_1" data-points="W3sieCI6MTg5LjA4MjAzMTI1LCJ5Ijo5Mn0seyJ4IjoxODkuMDgyMDMxMjUsInkiOjExN30seyJ4IjoxODkuMDgyMDMxMjUsInkiOjE0Mn1d" data-look="classic" marker-end="url(#my-svg_class-dependencyEnd)"/><path d="M124.38,226L117.961,230.167C111.543,234.333,98.705,242.667,92.286,250C85.867,257.333,85.867,263.667,85.867,266.833L85.867,270" id="my-svg-id_BackendBoundaries_PipelineContracts_2" class="edge-thickness-normal edge-pattern-solid relation" style=";;;" data-edge="true" data-et="edge" data-id="id_BackendBoundaries_PipelineContracts_2" data-points="W3sieCI6MTI0LjM4MDE4ODg5OTI1MzcyLCJ5IjoyMjZ9LHsieCI6ODUuODY3MTg3NSwieSI6MjUxfSx7IngiOjg1Ljg2NzE4NzUsInkiOjI3Nn1d" data-look="classic" marker-end="url(#my-svg_class-dependencyEnd)"/><path d="M253.784,226L260.203,230.167C266.622,234.333,279.459,242.667,285.878,250C292.297,257.333,292.297,263.667,292.297,266.833L292.297,270" id="my-svg-id_BackendBoundaries_TrackingContracts_3" class="edge-thickness-normal edge-pattern-solid relation" style=";;;" data-edge="true" data-et="edge" data-id="id_BackendBoundaries_TrackingContracts_3" data-points="W3sieCI6MjUzLjc4Mzg3MzYwMDc0NjMsInkiOjIyNn0seyJ4IjoyOTIuMjk2ODc1LCJ5IjoyNTF9LHsieCI6MjkyLjI5Njg3NSwieSI6Mjc2fV0=" data-look="classic" marker-end="url(#my-svg_class-dependencyEnd)"/></g><g class="edgeLabels"><g class="edgeLabel"><g class="label" data-id="id_FrontendAPI_BackendBoundaries_1" transform="translate(0, 0)"><foreignObject width="0" height="0"><div xmlns="http://www.w3.org/1999/xhtml" class="labelBkg" style="display: table-cell; white-space: nowrap; line-height: 1.5; max-width: 200px; text-align: center;"><span class="edgeLabel"></span></div></foreignObject></g></g><g class="edgeLabel"><g class="label" data-id="id_BackendBoundaries_PipelineContracts_2" transform="translate(0, 0)"><foreignObject width="0" height="0"><div xmlns="http://www.w3.org/1999/xhtml" class="labelBkg" style="display: table-cell; white-space: nowrap; line-height: 1.5; max-width: 200px; text-align: center;"><span class="edgeLabel"></span></div></foreignObject></g></g><g class="edgeLabel"><g class="label" data-id="id_BackendBoundaries_TrackingContracts_3" transform="translate(0, 0)"><foreignObject width="0" height="0"><div xmlns="http://www.w3.org/1999/xhtml" class="labelBkg" style="display: table-cell; white-space: nowrap; line-height: 1.5; max-width: 200px; text-align: center;"><span class="edgeLabel"></span></div></foreignObject></g></g></g><g class="nodes"><g class="node default" id="my-svg-classId-FrontendAPI-0" data-look="classic" transform="translate(189.08203125, 50)"><g class="basic label-container outer-path"><path d="M-58.4609375 -42 L58.4609375 -42 L58.4609375 42 L-58.4609375 42" stroke="none" stroke-width="0" fill="#1f2020" style=""/><path d="M-58.4609375 -42 C-21.865499725721712 -42, 14.729938048556576 -42, 58.4609375 -42 M-58.4609375 -42 C-25.403667575113914 -42, 7.6536023497721715 -42, 58.4609375 -42 M58.4609375 -42 C58.4609375 -14.736282203820064, 58.4609375 12.527435592359872, 58.4609375 42 M58.4609375 -42 C58.4609375 -17.714477420016845, 58.4609375 6.57104515996631, 58.4609375 42 M58.4609375 42 C32.18269444663079 42, 5.9044513932615885 42, -58.4609375 42 M58.4609375 42 C22.68223342239815 42, -13.096470655203703 42, -58.4609375 42 M-58.4609375 42 C-58.4609375 10.803448298917047, -58.4609375 -20.393103402165906, -58.4609375 -42 M-58.4609375 42 C-58.4609375 19.60609054666381, -58.4609375 -2.7878189066723778, -58.4609375 -42" stroke="#ccc" stroke-width="1.3" fill="none" stroke-dasharray="0 0" style=""/></g><g class="annotation-group text" transform="translate(0, -18)"/><g class="label-group text" transform="translate(-46.4609375, -18)"><g class="label" style="font-weight: bolder" transform="translate(0,-12)"><foreignObject width="92.921875" height="24"><div xmlns="http://www.w3.org/1999/xhtml" style="display: table-cell; white-space: nowrap; line-height: 1.5; max-width: 135px; text-align: center;"><span class="nodeLabel markdown-node-label" style=""><p>FrontendAPI</p></span></div></foreignObject></g></g><g class="members-group text" transform="translate(-46.4609375, 30)"/><g class="methods-group text" transform="translate(-46.4609375, 60)"/><g class="divider" style=""><path d="M-58.4609375 6 C-27.639260177286733 6.0002636091605845, 3.182417145426534 6.000527218321169, 58.4609375 6.001 M-58.4609375 6 C-22.719096652078285 6.000305689939098, 13.02274419584343 6.000611379878196, 58.4609375 6.001" stroke="#ccc" stroke-width="1.3" fill="none" stroke-dasharray="0 0" style=""/></g><g class="divider" style=""><path d="M-58.4609375 24 C-13.67580521357133 24.000383034674105, 31.10932707285734 24.000766069348213, 58.4609375 24.001 M-58.4609375 24 C-27.737782695443197 24.000262766525122, 2.985372109113605 24.000525533050247, 58.4609375 24.001" stroke="#ccc" stroke-width="1.3" fill="none" stroke-dasharray="0 0" style=""/></g></g><g class="node default" id="my-svg-classId-BackendBoundaries-1" data-look="classic" transform="translate(189.08203125, 184)"><g class="basic label-container outer-path"><path d="M-84.9609375 -42 L84.9609375 -42 L84.9609375 42 L-84.9609375 42" stroke="none" stroke-width="0" fill="#1f2020" style=""/><path d="M-84.9609375 -42 C-21.516726696251716 -42, 41.92748410749657 -42, 84.9609375 -42 M-84.9609375 -42 C-34.87859494706945 -42, 15.203747605861096 -42, 84.9609375 -42 M84.9609375 -42 C84.9609375 -20.6149786869918, 84.9609375 0.770042626016398, 84.9609375 42 M84.9609375 -42 C84.9609375 -20.823149788573446, 84.9609375 0.3537004228531089, 84.9609375 42 M84.9609375 42 C41.566401228489106 42, -1.8281350430217884 42, -84.9609375 42 M84.9609375 42 C47.355250605786175 42, 9.74956371157235 42, -84.9609375 42 M-84.9609375 42 C-84.9609375 14.8493897612397, -84.9609375 -12.301220477520602, -84.9609375 -42 M-84.9609375 42 C-84.9609375 20.94450985240619, -84.9609375 -0.11098029518762331, -84.9609375 -42" stroke="#ccc" stroke-width="1.3" fill="none" stroke-dasharray="0 0" style=""/></g><g class="annotation-group text" transform="translate(0, -18)"/><g class="label-group text" transform="translate(-72.9609375, -18)"><g class="label" style="font-weight: bolder" transform="translate(0,-12)"><foreignObject width="145.921875" height="24"><div xmlns="http://www.w3.org/1999/xhtml" style="display: table-cell; white-space: nowrap; line-height: 1.5; max-width: 180px; text-align: center;"><span class="nodeLabel markdown-node-label" style=""><p>BackendBoundaries</p></span></div></foreignObject></g></g><g class="members-group text" transform="translate(-72.9609375, 30)"/><g class="methods-group text" transform="translate(-72.9609375, 60)"/><g class="divider" style=""><path d="M-84.9609375 6 C-37.17106517671161 6.000281246145167, 10.618807146576785 6.000562492290334, 84.9609375 6.001 M-84.9609375 6 C-23.48246136812211 6.000361804365282, 37.99601476375578 6.0007236087305635, 84.9609375 6.001" stroke="#ccc" stroke-width="1.3" fill="none" stroke-dasharray="0 0" style=""/></g><g class="divider" style=""><path d="M-84.9609375 24 C-29.29917864978382 24.000327572649784, 26.36258020043236 24.00065514529957, 84.9609375 24.001 M-84.9609375 24 C-45.525887530483224 24.000232077535454, -6.090837560966449 24.000464155070905, 84.9609375 24.001" stroke="#ccc" stroke-width="1.3" fill="none" stroke-dasharray="0 0" style=""/></g></g><g class="node default" id="my-svg-classId-PipelineContracts-2" data-look="classic" transform="translate(85.8671875, 318)"><g class="basic label-container outer-path"><path d="M-77.8671875 -42 L77.8671875 -42 L77.8671875 42 L-77.8671875 42" stroke="none" stroke-width="0" fill="#1f2020" style=""/><path d="M-77.8671875 -42 C-20.807700671202227 -42, 36.25178615759555 -42, 77.8671875 -42 M-77.8671875 -42 C-37.02772942009094 -42, 3.8117286598181153 -42, 77.8671875 -42 M77.8671875 -42 C77.8671875 -24.3141327336805, 77.8671875 -6.628265467360997, 77.8671875 42 M77.8671875 -42 C77.8671875 -13.12655948284399, 77.8671875 15.746881034312018, 77.8671875 42 M77.8671875 42 C23.75331336260752 42, -30.360560774784958 42, -77.8671875 42 M77.8671875 42 C28.978795843576158 42, -19.909595812847684 42, -77.8671875 42 M-77.8671875 42 C-77.8671875 12.935399813479222, -77.8671875 -16.129200373041556, -77.8671875 -42 M-77.8671875 42 C-77.8671875 18.745472830972044, -77.8671875 -4.509054338055911, -77.8671875 -42" stroke="#ccc" stroke-width="1.3" fill="none" stroke-dasharray="0 0" style=""/></g><g class="annotation-group text" transform="translate(0, -18)"/><g class="label-group text" transform="translate(-65.8671875, -18)"><g class="label" style="font-weight: bolder" transform="translate(0,-12)"><foreignObject width="131.734375" height="24"><div xmlns="http://www.w3.org/1999/xhtml" style="display: table-cell; white-space: nowrap; line-height: 1.5; max-width: 165px; text-align: center;"><span class="nodeLabel markdown-node-label" style=""><p>PipelineContracts</p></span></div></foreignObject></g></g><g class="members-group text" transform="translate(-65.8671875, 30)"/><g class="methods-group text" transform="translate(-65.8671875, 60)"/><g class="divider" style=""><path d="M-77.8671875 6 C-41.84011676263292 6.00023133666371, -5.813046025265834 6.000462673327419, 77.8671875 6.001 M-77.8671875 6 C-46.38085549169837 6.000202179717922, -14.894523483396746 6.000404359435844, 77.8671875 6.001" stroke="#ccc" stroke-width="1.3" fill="none" stroke-dasharray="0 0" style=""/></g><g class="divider" style=""><path d="M-77.8671875 24 C-34.42374075366522 24.00027895862263, 9.019705992669557 24.000557917245263, 77.8671875 24.001 M-77.8671875 24 C-45.53650188367462 24.000207601472805, -13.205816267349235 24.00041520294561, 77.8671875 24.001" stroke="#ccc" stroke-width="1.3" fill="none" stroke-dasharray="0 0" style=""/></g></g><g class="node default" id="my-svg-classId-TrackingContracts-3" data-look="classic" transform="translate(292.296875, 318)"><g class="basic label-container outer-path"><path d="M-78.5625 -42 L78.5625 -42 L78.5625 42 L-78.5625 42" stroke="none" stroke-width="0" fill="#1f2020" style=""/><path d="M-78.5625 -42 C-33.25958183715652 -42, 12.043336325686965 -42, 78.5625 -42 M-78.5625 -42 C-39.70618913682321 -42, -0.849878273646425 -42, 78.5625 -42 M78.5625 -42 C78.5625 -15.580781255662309, 78.5625 10.838437488675382, 78.5625 42 M78.5625 -42 C78.5625 -12.297962586429122, 78.5625 17.404074827141756, 78.5625 42 M78.5625 42 C43.12122060851065 42, 7.679941217021295 42, -78.5625 42 M78.5625 42 C19.31708032645622 42, -39.92833934708756 42, -78.5625 42 M-78.5625 42 C-78.5625 10.286403843840958, -78.5625 -21.427192312318084, -78.5625 -42 M-78.5625 42 C-78.5625 13.88402397067319, -78.5625 -14.231952058653619, -78.5625 -42" stroke="#ccc" stroke-width="1.3" fill="none" stroke-dasharray="0 0" style=""/></g><g class="annotation-group text" transform="translate(0, -18)"/><g class="label-group text" transform="translate(-66.5625, -18)"><g class="label" style="font-weight: bolder" transform="translate(0,-12)"><foreignObject width="133.125" height="24"><div xmlns="http://www.w3.org/1999/xhtml" style="display: table-cell; white-space: nowrap; line-height: 1.5; max-width: 169px; text-align: center;"><span class="nodeLabel markdown-node-label" style=""><p>TrackingContracts</p></span></div></foreignObject></g></g><g class="members-group text" transform="translate(-66.5625, 30)"/><g class="methods-group text" transform="translate(-66.5625, 60)"/><g class="divider" style=""><path d="M-78.5625 6 C-31.666972474651196 6.000298460000161, 15.228555050697608 6.000596920000323, 78.5625 6.001 M-78.5625 6 C-41.68960701698235 6.000234672349932, -4.8167140339647005 6.000469344699863, 78.5625 6.001" stroke="#ccc" stroke-width="1.3" fill="none" stroke-dasharray="0 0" style=""/></g><g class="divider" style=""><path d="M-78.5625 24 C-27.957107504143657 24.00032207091485, 22.648284991712686 24.000644141829703, 78.5625 24.001 M-78.5625 24 C-42.73303651542255 24.0002280315894, -6.903573030845095 24.000456063178802, 78.5625 24.001" stroke="#ccc" stroke-width="1.3" fill="none" stroke-dasharray="0 0" style=""/></g></g></g></g></g><defs><filter id="my-svg-drop-shadow" height="130%" width="130%"><feDropShadow dx="4" dy="4" stdDeviation="0" flood-opacity="0.06" flood-color="#FFFFFF"/></filter></defs><defs><filter id="my-svg-drop-shadow-small" height="150%" width="150%"><feDropShadow dx="2" dy="2" stdDeviation="0" flood-opacity="0.06" flood-color="#FFFFFF"/></filter></defs><linearGradient id="my-svg-gradient" gradientUnits="objectBoundingBox" x1="0%" y1="0%" x2="100%" y2="0%"><stop offset="0%" stop-color="#cccccc" stop-opacity="1"/><stop offset="100%" stop-color="hsl(180, 0%, 18.3529411765%)" stop-opacity="1"/></linearGradient></svg>